<?xml version="1.0" encoding="UTF-8" standalone="no"?>
<svg
	xmlns:dc="http://purl.org/dc/elements/1.1/"
	xmlns:cc="http://creativecommons.org/ns#"
	xmlns:rdf="http://www.w3.org/1999/02/22-rdf-syntax-ns#"
	xmlns:svg="http://www.w3.org/2000/svg"
	xmlns="http://www.w3.org/2000/svg"
	version="1.1"
	width="1080"
	height="1920"
	id="svg3545">
	<defs id="defs3547" >
		<pattern id="fillpattern" patternUnits="userSpaceOnUse" width="48" height="48" patternTransform="rotate(-45 0 0)" >
			<path d="m 0,0 48,0"
style="fill:none;stroke:#000000;stroke-width:2pt;stroke-linecap:butt;stroke-linejoin:miter;stroke-miterlimit:4;stroke-opacity:1;stroke-dasharray:none" />
</pattern>

	</defs>
	<metadata id="metadata3550">
		<rdf:RDF>
			<cc:Work rdf:about="">
				<dc:format>image/svg+xml</dc:format>
				<dc:type rdf:resource="http://purl.org/dc/dcmitype/StillImage" />
				<dc:title></dc:title>
			</cc:Work>
		</rdf:RDF>
	</metadata>
	<g id="layer1">
		<rect
			width="1080"
			height="1920"
			x="0"
			y="0"
			id="bg-rect"
			style="fill:#ffffff;fill-opacity:1;stroke:none;stroke-width:2pt;stroke-miterlimit:4;stroke-opacity:1;stroke-dasharray:none" />
		<path d="m 324,1632 432,0" id="bottomline"
			 style="fill:none;stroke:#000000;stroke-width:2pt;stroke-linecap:butt;stroke-linejoin:miter;stroke-opacity:1" />
		<path d="m 324,0 432,0" id="topline"
			 style="fill:none;stroke:#000000;stroke-width:2pt;stroke-linecap:butt;stroke-linejoin:miter;stroke-opacity:1" />
		<path d="m 324,1497 432,0" id="upperstartline"
			 style="fill:none;stroke:#000000;stroke-width:2pt;stroke-linecap:butt;stroke-linejoin:miter;stroke-opacity:1" />
		<path d="m 324,1477.8 432,0" id="lowerstartline"
			 style="fill:none;stroke:#000000;stroke-width:2pt;stroke-linecap:butt;stroke-linejoin:miter;stroke-opacity:1" />
		<path d="m 540,0 0,1632" id="centerline"
			 style="fill:none;stroke:#000000;stroke-width:2pt;stroke-linecap:butt;stroke-linejoin:miter;stroke-opacity:1" />
		<path d="m 324,0 0,1632" id="leftline"
			 style="fill:none;stroke:#000000;stroke-width:2pt;stroke-linecap:butt;stroke-linejoin:miter;stroke-opacity:1" />
		<path d="m 756,0 0,1632" id="rightline"
			 style="fill:none;stroke:#000000;stroke-width:2pt;stroke-linecap:butt;stroke-linejoin:miter;stroke-opacity:1" />
		<path d="m 522,1451 36,0" id="beatmark6"
			 style="fill:none;stroke:#000000;stroke-width:2pt;stroke-linecap:butt;stroke-linejoin:miter;stroke-opacity:1" />
		<path d="m 522,1424 36,0" id="beatmark7"
			 style="fill:none;stroke:#000000;stroke-width:2pt;stroke-linecap:butt;stroke-linejoin:miter;stroke-opacity:1" />
		<path d="m 522,1397 36,0" id="beatmark8"
			 style="fill:none;stroke:#000000;stroke-width:2pt;stroke-linecap:butt;stroke-linejoin:miter;stroke-opacity:1" />
		<path d="m 522,1370 36,0" id="beatmark9"
			 style="fill:none;stroke:#000000;stroke-width:2pt;stroke-linecap:butt;stroke-linejoin:miter;stroke-opacity:1" />
		<path d="m 324,1344 432,0" id="measuremark2"
			 style="fill:none;stroke:#000000;stroke-width:2pt;stroke-linecap:butt;stroke-linejoin:miter;stroke-opacity:1" />
		<path d="m 522,1317 36,0" id="beatmark11"
			 style="fill:none;stroke:#000000;stroke-width:2pt;stroke-linecap:butt;stroke-linejoin:miter;stroke-opacity:1" />
		<path d="m 522,1290 36,0" id="beatmark12"
			 style="fill:none;stroke:#000000;stroke-width:2pt;stroke-linecap:butt;stroke-linejoin:miter;stroke-opacity:1" />
		<path d="m 522,1263 36,0" id="beatmark13"
			 style="fill:none;stroke:#000000;stroke-width:2pt;stroke-linecap:butt;stroke-linejoin:miter;stroke-opacity:1" />
		<path d="m 522,1236 36,0" id="beatmark14"
			 style="fill:none;stroke:#000000;stroke-width:2pt;stroke-linecap:butt;stroke-linejoin:miter;stroke-opacity:1" />
		<path d="m 324,1209 432,0" id="measuremark3"
			 style="fill:none;stroke:#000000;stroke-width:2pt;stroke-linecap:butt;stroke-linejoin:miter;stroke-opacity:1" />
		<path d="m 522,1182 36,0" id="beatmark16"
			 style="fill:none;stroke:#000000;stroke-width:2pt;stroke-linecap:butt;stroke-linejoin:miter;stroke-opacity:1" />
		<path d="m 522,1155 36,0" id="beatmark17"
			 style="fill:none;stroke:#000000;stroke-width:2pt;stroke-linecap:butt;stroke-linejoin:miter;stroke-opacity:1" />
		<path d="m 522,1128 36,0" id="beatmark18"
			 style="fill:none;stroke:#000000;stroke-width:2pt;stroke-linecap:butt;stroke-linejoin:miter;stroke-opacity:1" />
		<path d="m 522,1102 36,0" id="beatmark19"
			 style="fill:none;stroke:#000000;stroke-width:2pt;stroke-linecap:butt;stroke-linejoin:miter;stroke-opacity:1" />
		<path d="m 324,1075 432,0" id="measuremark4"
			 style="fill:none;stroke:#000000;stroke-width:2pt;stroke-linecap:butt;stroke-linejoin:miter;stroke-opacity:1" />
		<path d="m 522,1048 36,0" id="beatmark21"
			 style="fill:none;stroke:#000000;stroke-width:2pt;stroke-linecap:butt;stroke-linejoin:miter;stroke-opacity:1" />
		<path d="m 522,1021 36,0" id="beatmark22"
			 style="fill:none;stroke:#000000;stroke-width:2pt;stroke-linecap:butt;stroke-linejoin:miter;stroke-opacity:1" />
		<path d="m 522,994 36,0" id="beatmark23"
			 style="fill:none;stroke:#000000;stroke-width:2pt;stroke-linecap:butt;stroke-linejoin:miter;stroke-opacity:1" />
		<path d="m 522,967 36,0" id="beatmark24"
			 style="fill:none;stroke:#000000;stroke-width:2pt;stroke-linecap:butt;stroke-linejoin:miter;stroke-opacity:1" />
		<path d="m 324,940 432,0" id="measuremark5"
			 style="fill:none;stroke:#000000;stroke-width:2pt;stroke-linecap:butt;stroke-linejoin:miter;stroke-opacity:1" />
		<path d="m 522,913 36,0" id="beatmark26"
			 style="fill:none;stroke:#000000;stroke-width:2pt;stroke-linecap:butt;stroke-linejoin:miter;stroke-opacity:1" />
		<path d="m 522,887 36,0" id="beatmark27"
			 style="fill:none;stroke:#000000;stroke-width:2pt;stroke-linecap:butt;stroke-linejoin:miter;stroke-opacity:1" />
		<path d="m 522,860 36,0" id="beatmark28"
			 style="fill:none;stroke:#000000;stroke-width:2pt;stroke-linecap:butt;stroke-linejoin:miter;stroke-opacity:1" />
		<path d="m 522,833 36,0" id="beatmark29"
			 style="fill:none;stroke:#000000;stroke-width:2pt;stroke-linecap:butt;stroke-linejoin:miter;stroke-opacity:1" />
		<path d="m 324,806 432,0" id="measuremark6"
			 style="fill:none;stroke:#000000;stroke-width:2pt;stroke-linecap:butt;stroke-linejoin:miter;stroke-opacity:1" />
		<path d="m 522,779 36,0" id="beatmark31"
			 style="fill:none;stroke:#000000;stroke-width:2pt;stroke-linecap:butt;stroke-linejoin:miter;stroke-opacity:1" />
		<path d="m 522,752 36,0" id="beatmark32"
			 style="fill:none;stroke:#000000;stroke-width:2pt;stroke-linecap:butt;stroke-linejoin:miter;stroke-opacity:1" />
		<path d="m 522,725 36,0" id="beatmark33"
			 style="fill:none;stroke:#000000;stroke-width:2pt;stroke-linecap:butt;stroke-linejoin:miter;stroke-opacity:1" />
		<path d="m 522,698 36,0" id="beatmark34"
			 style="fill:none;stroke:#000000;stroke-width:2pt;stroke-linecap:butt;stroke-linejoin:miter;stroke-opacity:1" />
		<path d="m 324,672 432,0" id="measuremark7"
			 style="fill:none;stroke:#000000;stroke-width:2pt;stroke-linecap:butt;stroke-linejoin:miter;stroke-opacity:1" />
		<path d="m 522,645 36,0" id="beatmark36"
			 style="fill:none;stroke:#000000;stroke-width:2pt;stroke-linecap:butt;stroke-linejoin:miter;stroke-opacity:1" />
		<path d="m 522,618 36,0" id="beatmark37"
			 style="fill:none;stroke:#000000;stroke-width:2pt;stroke-linecap:butt;stroke-linejoin:miter;stroke-opacity:1" />
		<path d="m 522,591 36,0" id="beatmark38"
			 style="fill:none;stroke:#000000;stroke-width:2pt;stroke-linecap:butt;stroke-linejoin:miter;stroke-opacity:1" />
		<path d="m 522,564 36,0" id="beatmark39"
			 style="fill:none;stroke:#000000;stroke-width:2pt;stroke-linecap:butt;stroke-linejoin:miter;stroke-opacity:1" />
		<path d="m 324,537 432,0" id="measuremark8"
			 style="fill:none;stroke:#000000;stroke-width:2pt;stroke-linecap:butt;stroke-linejoin:miter;stroke-opacity:1" />
		<path d="m 522,510 36,0" id="beatmark41"
			 style="fill:none;stroke:#000000;stroke-width:2pt;stroke-linecap:butt;stroke-linejoin:miter;stroke-opacity:1" />
		<path d="m 522,483 36,0" id="beatmark42"
			 style="fill:none;stroke:#000000;stroke-width:2pt;stroke-linecap:butt;stroke-linejoin:miter;stroke-opacity:1" />
		<path d="m 522,456 36,0" id="beatmark43"
			 style="fill:none;stroke:#000000;stroke-width:2pt;stroke-linecap:butt;stroke-linejoin:miter;stroke-opacity:1" />
		<path d="m 522,430 36,0" id="beatmark44"
			 style="fill:none;stroke:#000000;stroke-width:2pt;stroke-linecap:butt;stroke-linejoin:miter;stroke-opacity:1" />
		<path d="m 324,403 432,0" id="measuremark9"
			 style="fill:none;stroke:#000000;stroke-width:2pt;stroke-linecap:butt;stroke-linejoin:miter;stroke-opacity:1" />
		<path d="m 522,376 36,0" id="beatmark46"
			 style="fill:none;stroke:#000000;stroke-width:2pt;stroke-linecap:butt;stroke-linejoin:miter;stroke-opacity:1" />
		<path d="m 522,349 36,0" id="beatmark47"
			 style="fill:none;stroke:#000000;stroke-width:2pt;stroke-linecap:butt;stroke-linejoin:miter;stroke-opacity:1" />
		<path d="m 522,322 36,0" id="beatmark48"
			 style="fill:none;stroke:#000000;stroke-width:2pt;stroke-linecap:butt;stroke-linejoin:miter;stroke-opacity:1" />
		<path d="m 522,295 36,0" id="beatmark49"
			 style="fill:none;stroke:#000000;stroke-width:2pt;stroke-linecap:butt;stroke-linejoin:miter;stroke-opacity:1" />
		<path d="m 324,268 432,0" id="measuremark10"
			 style="fill:none;stroke:#000000;stroke-width:2pt;stroke-linecap:butt;stroke-linejoin:miter;stroke-opacity:1" />
		<path d="m 522,241 36,0" id="beatmark51"
			 style="fill:none;stroke:#000000;stroke-width:2pt;stroke-linecap:butt;stroke-linejoin:miter;stroke-opacity:1" />
		<path d="m 522,215 36,0" id="beatmark52"
			 style="fill:none;stroke:#000000;stroke-width:2pt;stroke-linecap:butt;stroke-linejoin:miter;stroke-opacity:1" />
		<path d="m 522,188 36,0" id="beatmark53"
			 style="fill:none;stroke:#000000;stroke-width:2pt;stroke-linecap:butt;stroke-linejoin:miter;stroke-opacity:1" />
		<path d="m 522,161 36,0" id="beatmark54"
			 style="fill:none;stroke:#000000;stroke-width:2pt;stroke-linecap:butt;stroke-linejoin:miter;stroke-opacity:1" />
		<path d="m 324,134 432,0" id="measuremark11"
			 style="fill:none;stroke:#000000;stroke-width:2pt;stroke-linecap:butt;stroke-linejoin:miter;stroke-opacity:1" />
		<path d="m 522,107 36,0" id="beatmark56"
			 style="fill:none;stroke:#000000;stroke-width:2pt;stroke-linecap:butt;stroke-linejoin:miter;stroke-opacity:1" />
		<path d="m 522,80 36,0" id="beatmark57"
			 style="fill:none;stroke:#000000;stroke-width:2pt;stroke-linecap:butt;stroke-linejoin:miter;stroke-opacity:1" />
		<path d="m 522,53 36,0" id="beatmark58"
			 style="fill:none;stroke:#000000;stroke-width:2pt;stroke-linecap:butt;stroke-linejoin:miter;stroke-opacity:1" />
		<path d="m 522,26 36,0" id="beatmark59"
			 style="fill:none;stroke:#000000;stroke-width:2pt;stroke-linecap:butt;stroke-linejoin:miter;stroke-opacity:1" />
		<rect
			width="54"
			height="22.4"
			x="135"
			y="533.12"
			id="movement--4-7-4.33333"
			style="fill:#000000;fill-opacity:1;stroke:#000000;stroke-width:2pt;stroke-miterlimit:4;stroke-opacity:1;stroke-dasharray:none" />
		<path
			d="m 135,562.987 54,-7.46667 0,22.4 -54,0 0,-14.9333 z"
			id="movement--4-7-3.5"
			style="fill:#000000;fill-opacity:1;stroke:#000000;stroke-width:2pt;stroke-miterlimit:4;stroke-opacity:1;stroke-dasharray:none" />
		<path
			d="m 135,579.413 27,0 0,-1.49333 27,0 0,4.48 -54,0 0,-2.98667 z"
			id="movement--4-7-3.33333"
			style="fill:#000000;fill-opacity:1;stroke:#000000;stroke-width:2pt;stroke-miterlimit:4;stroke-opacity:1;stroke-dasharray:none" />
		<path
			d="m 135,585.387 54,-2.98667 0,8.96 -54,0 0,-5.97333 z"
			id="movement--4-7-3"
			style="fill:#000000;fill-opacity:1;stroke:#000000;stroke-width:2pt;stroke-miterlimit:4;stroke-opacity:1;stroke-dasharray:none" />
		<path
			d="m 135,612.267 27,0 0,-20.9067 27,0 0,62.72 -54,0 0,-41.8133 z"
			id="movement--4-7-0.666667"
			style="fill:#ffffff;fill-opacity:1;stroke:#000000;stroke-width:2pt;stroke-miterlimit:4;stroke-opacity:1;stroke-dasharray:none" />
		<path
			d="m 166.5,633.173 a 4.5,4.5 0 1 1 -9,0 4.5,4.5 0 1 1 9,0 z"
			id="movement--4-7-0.666667-middot"
			style="fill:#000000;fill-opacity:1;stroke:none" />
		<path
			d="m 135,661.547 54,-7.46667 0,22.4 -54,0 0,-14.9333 z"
			id="movement--4-6-4.83333"
			style="fill:#000000;fill-opacity:1;stroke:#000000;stroke-width:2pt;stroke-miterlimit:4;stroke-opacity:1;stroke-dasharray:none" />
		<path
			d="m 135,677.973 54,-1.49333 0,4.48 -54,0 0,-2.98667 z"
			id="movement--4-6-4.66667"
			style="fill:#ffffff;fill-opacity:1;stroke:#000000;stroke-width:2pt;stroke-miterlimit:4;stroke-opacity:1;stroke-dasharray:none" />
		<path
			d="m 166.48,678.72 a 4.48,4.48 0 1 1 -8.96,0 4.48,4.48 0 1 1 8.96,0 z"
			id="movement--4-6-4.66667-middot"
			style="fill:#000000;fill-opacity:1;stroke:none" />
		<path
			d="m 135,688.427 54,-7.46667 0,22.4 -54,0 0,-14.9333 z"
			id="movement--4-6-3.83333"
			style="fill:#000000;fill-opacity:1;stroke:#000000;stroke-width:2pt;stroke-miterlimit:4;stroke-opacity:1;stroke-dasharray:none" />
		<path
			d="m 135,715.307 27,0 0,-11.9467 27,0 0,35.84 -54,0 0,-23.8933 z"
			id="movement--4-6-2.5"
			style="fill:#ffffff;fill-opacity:1;stroke:#000000;stroke-width:2pt;stroke-miterlimit:4;stroke-opacity:1;stroke-dasharray:none" />
		<path
			d="m 166.5,727.253 a 4.5,4.5 0 1 1 -9,0 4.5,4.5 0 1 1 9,0 z"
			id="movement--4-6-2.5-middot"
			style="fill:#000000;fill-opacity:1;stroke:none" />
		<path
			d="m 135,784 54,-13.44 0,40.32 -54,0 0,-26.88 z"
			id="movement--4-5-4.83333"
			style="fill:#000000;fill-opacity:1;stroke:#000000;stroke-width:2pt;stroke-miterlimit:4;stroke-opacity:1;stroke-dasharray:none" />
		<path
			d="m 135,813.867 27,0 0,-2.98667 27,0 0,8.96 -54,0 0,-5.97333 z"
			id="movement--4-5-4.5"
			style="fill:#ffffff;fill-opacity:1;stroke:#000000;stroke-width:2pt;stroke-miterlimit:4;stroke-opacity:1;stroke-dasharray:none" />
		<path
			d="m 166.5,816.853 a 4.5,4.5 0 1 1 -9,0 4.5,4.5 0 1 1 9,0 z"
			id="movement--4-5-4.5-middot"
			style="fill:#000000;fill-opacity:1;stroke:none" />
		<path
			d="m 135,822.827 27,0 0,-2.98667 27,0 0,8.96 -54,0 0,-5.97333 z"
			id="movement--4-5-4.16667"
			style="fill:#000000;fill-opacity:1;stroke:#000000;stroke-width:2pt;stroke-miterlimit:4;stroke-opacity:1;stroke-dasharray:none" />
		<rect
			width="54"
			height="17.92"
			x="135"
			y="828.8"
			id="movement--4-5-3.5"
			style="fill:#000000;fill-opacity:1;stroke:#000000;stroke-width:2pt;stroke-miterlimit:4;stroke-opacity:1;stroke-dasharray:none" />
		<path
			d="m 135,855.68 54,-8.96 0,26.88 -54,0 0,-17.92 z"
			id="movement--4-5-2.5"
			style="fill:#ffffff;fill-opacity:1;stroke:#000000;stroke-width:2pt;stroke-miterlimit:4;stroke-opacity:1;stroke-dasharray:none" />
		<path
			d="m 166.5,860.16 a 4.5,4.5 0 1 1 -9,0 4.5,4.5 0 1 1 9,0 z"
			id="movement--4-5-2.5-middot"
			style="fill:#000000;fill-opacity:1;stroke:none" />
		<rect
			width="54"
			height="8.96"
			x="135"
			y="1254.4"
			id="movement--4-2-3"
			style="fill:#000000;fill-opacity:1;stroke:#000000;stroke-width:2pt;stroke-miterlimit:4;stroke-opacity:1;stroke-dasharray:none" />
		<path
			d="m 135,1264.85 54,-1.49333 0,4.48 -54,0 0,-2.98667 z"
			id="movement--4-2-2.83333"
			style="fill:#000000;fill-opacity:1;stroke:#000000;stroke-width:2pt;stroke-miterlimit:4;stroke-opacity:1;stroke-dasharray:none" />
		<path
			d="m 135,1269.33 54,-1.49333 0,4.48 -54,0 0,-2.98667 z"
			id="movement--4-2-2.66667"
			style="fill:#ffffff;fill-opacity:1;stroke:#000000;stroke-width:2pt;stroke-miterlimit:4;stroke-opacity:1;stroke-dasharray:none" />
		<path
			d="m 166.48,1270.08 a 4.48,4.48 0 1 1 -8.96,0 4.48,4.48 0 1 1 8.96,0 z"
			id="movement--4-2-2.66667-middot"
			style="fill:#000000;fill-opacity:1;stroke:none" />
		<path
			d="m 135,1281.28 0,8.96 54,-4.48 -54,-4.48 z"
			id="movement--4-2-2"
			style="fill:#ffffff;fill-opacity:1;stroke:#000000;stroke-width:2pt;stroke-miterlimit:4;stroke-opacity:1;stroke-dasharray:none" />
		<path
			d="m 157.5,1285.76 a 4.5,4.5 0 1 1 -9,0 4.5,4.5 0 1 1 9,0 z"
			id="movement--4-2-2-middot"
			style="fill:#000000;fill-opacity:1;stroke:none" />
		<path
			d="m 135,1315.63 54,-2.98667 0,8.96 -54,0 0,-5.97333 z"
			id="movement--4-2-0.833333"
			style="fill:#000000;fill-opacity:1;stroke:#000000;stroke-width:2pt;stroke-miterlimit:4;stroke-opacity:1;stroke-dasharray:none" />
		<path
			d="m 135,1327.57 54,-5.97333 0,17.92 -54,0 0,-11.9467 z"
			id="movement--4-2-0.166667"
			style="fill:#ffffff;fill-opacity:1;stroke:#000000;stroke-width:2pt;stroke-miterlimit:4;stroke-opacity:1;stroke-dasharray:none" />
		<path
			d="m 166.5,1330.56 a 4.5,4.5 0 1 1 -9,0 4.5,4.5 0 1 1 9,0 z"
			id="movement--4-2-0.166667-middot"
			style="fill:#000000;fill-opacity:1;stroke:none" />
		<rect
			width="54"
			height="134.4"
			x="135"
			y="1497.6"
			id="movement--4-0-0"
			style="fill:#000000;fill-opacity:1;stroke:#000000;stroke-width:2pt;stroke-miterlimit:4;stroke-opacity:1;stroke-dasharray:none" />
		<rect
			width="54"
			height="44.8"
			x="891"
			y="497.28"
			id="movement-4-7-4.83333"
			style="fill:#000000;fill-opacity:1;stroke:#000000;stroke-width:2pt;stroke-miterlimit:4;stroke-opacity:1;stroke-dasharray:none" />
		<path
			d="m 945,558.507 -27,0 0,-16.4267 -27,0 0,49.28 54,0 0,-32.8533 z"
			id="movement-4-7-3"
			style="fill:#000000;fill-opacity:1;stroke:#000000;stroke-width:2pt;stroke-miterlimit:4;stroke-opacity:1;stroke-dasharray:none" />
		<path
			d="m 945,845.227 -54,-11.9467 0,35.84 54,0 0,-23.8933 z"
			id="movement-4-5-2.66667"
			style="fill:#ffffff;fill-opacity:1;stroke:#000000;stroke-width:2pt;stroke-miterlimit:4;stroke-opacity:1;stroke-dasharray:none" />
		<path
			d="m 922.5,851.2 a 4.5,4.5 0 1 1 -9,0 4.5,4.5 0 1 1 9,0 z"
			id="movement-4-5-2.66667-middot"
			style="fill:#000000;fill-opacity:1;stroke:none" />
		<path
			d="m 945,876.587 -27,0 0,-7.46667 -27,0 0,22.4 54,0 0,-14.9333 z"
			id="movement-4-5-1.83333"
			style="fill:#ffffff;fill-opacity:1;stroke:#000000;stroke-width:2pt;stroke-miterlimit:4;stroke-opacity:1;stroke-dasharray:none" />
		<path
			d="m 922.5,884.053 a 4.5,4.5 0 1 1 -9,0 4.5,4.5 0 1 1 9,0 z"
			id="movement-4-5-1.83333-middot"
			style="fill:#000000;fill-opacity:1;stroke:none" />
		<path
			d="m 891,903.467 54,-11.9467 0,35.84 -54,0 0,-23.8933 z"
			id="movement-4-5-0.5"
			style="fill:#ffffff;fill-opacity:1;stroke:#000000;stroke-width:2pt;stroke-miterlimit:4;stroke-opacity:1;stroke-dasharray:none" />
		<path
			d="m 922.5,909.44 a 4.5,4.5 0 1 1 -9,0 4.5,4.5 0 1 1 9,0 z"
			id="movement-4-5-0.5-middot"
			style="fill:#000000;fill-opacity:1;stroke:none" />
		<path
			d="m 891,981.12 0,22.4 54,-11.2 -54,-11.2 z"
			id="movement-4-4-2.66667"
			style="fill:#ffffff;fill-opacity:1;stroke:#000000;stroke-width:2pt;stroke-miterlimit:4;stroke-opacity:1;stroke-dasharray:none" />
		<path
			d="m 913.5,992.32 a 4.5,4.5 0 1 1 -9,0 4.5,4.5 0 1 1 9,0 z"
			id="movement-4-4-2.66667-middot"
			style="fill:#000000;fill-opacity:1;stroke:none" />
		<path
			d="m 891,1008 54,-4.48 0,13.44 -54,0 0,-8.96 z"
			id="movement-4-4-2.16667"
			style="fill:#ffffff;fill-opacity:1;stroke:#000000;stroke-width:2pt;stroke-miterlimit:4;stroke-opacity:1;stroke-dasharray:none" />
		<path
			d="m 922.5,1010.24 a 4.5,4.5 0 1 1 -9,0 4.5,4.5 0 1 1 9,0 z"
			id="movement-4-4-2.16667-middot"
			style="fill:#000000;fill-opacity:1;stroke:none" />
		<path
			d="m 945,1028.91 -27,0 0,-11.9467 -27,0 0,35.84 54,0 0,-23.8933 z"
			id="movement-4-4-0.833333"
			style="fill:#ffffff;fill-opacity:1;stroke:#000000;stroke-width:2pt;stroke-miterlimit:4;stroke-opacity:1;stroke-dasharray:none" />
		<path
			d="m 922.5,1040.85 a 4.5,4.5 0 1 1 -9,0 4.5,4.5 0 1 1 9,0 z"
			id="movement-4-4-0.833333-middot"
			style="fill:#000000;fill-opacity:1;stroke:none" />
		<path
			d="m 945,1067.73 -54,-10.4533 0,31.36 54,0 0,-20.9067 z"
			id="movement-4-3-4.5"
			style="fill:#ffffff;fill-opacity:1;stroke:#000000;stroke-width:2pt;stroke-miterlimit:4;stroke-opacity:1;stroke-dasharray:none" />
		<path
			d="m 922.5,1072.96 a 4.5,4.5 0 1 1 -9,0 4.5,4.5 0 1 1 9,0 z"
			id="movement-4-3-4.5-middot"
			style="fill:#000000;fill-opacity:1;stroke:none" />
		<path
			d="m 945,1091.63 -54,-2.98667 0,8.96 54,0 0,-5.97333 z"
			id="movement-4-3-4.16667"
			style="fill:#000000;fill-opacity:1;stroke:#000000;stroke-width:2pt;stroke-miterlimit:4;stroke-opacity:1;stroke-dasharray:none" />
		<path
			d="m 945,1100.59 -27,0 0,-2.98667 -27,0 0,8.96 54,0 0,-5.97333 z"
			id="movement-4-3-3.83333"
			style="fill:#000000;fill-opacity:1;stroke:#000000;stroke-width:2pt;stroke-miterlimit:4;stroke-opacity:1;stroke-dasharray:none" />
		<path
			d="m 891,1111.04 54,-4.48 0,13.44 -54,0 0,-8.96 z"
			id="movement-4-3-3.33333"
			style="fill:#000000;fill-opacity:1;stroke:#000000;stroke-width:2pt;stroke-miterlimit:4;stroke-opacity:1;stroke-dasharray:none" />
		<path
			d="m 891,1131.95 54,-11.9467 0,35.84 -54,0 0,-23.8933 z"
			id="movement-4-3-2"
			style="fill:#ffffff;fill-opacity:1;stroke:#000000;stroke-width:2pt;stroke-miterlimit:4;stroke-opacity:1;stroke-dasharray:none" />
		<path
			d="m 922.5,1137.92 a 4.5,4.5 0 1 1 -9,0 4.5,4.5 0 1 1 9,0 z"
			id="movement-4-3-2-middot"
			style="fill:#000000;fill-opacity:1;stroke:none" />
		<path
			d="m 891,1155.84 0,85.12 54,-42.56 -54,-42.56 z"
			id="movement-4-2-3.83333"
			style="fill:#ffffff;fill-opacity:1;stroke:#000000;stroke-width:2pt;stroke-miterlimit:4;stroke-opacity:1;stroke-dasharray:none" />
		<path
			d="m 913.5,1198.4 a 4.5,4.5 0 1 1 -9,0 4.5,4.5 0 1 1 9,0 z"
			id="movement-4-2-3.83333-middot"
			style="fill:#000000;fill-opacity:1;stroke:none" />
		<path
			d="m 891,1246.93 54,-5.97333 0,17.92 -54,0 0,-11.9467 z"
			id="movement-4-2-3.16667"
			style="fill:#ffffff;fill-opacity:1;stroke:#000000;stroke-width:2pt;stroke-miterlimit:4;stroke-opacity:1;stroke-dasharray:none" />
		<path
			d="m 922.5,1249.92 a 4.5,4.5 0 1 1 -9,0 4.5,4.5 0 1 1 9,0 z"
			id="movement-4-2-3.16667-middot"
			style="fill:#000000;fill-opacity:1;stroke:none" />
		<path
			d="m 945,1266.35 -27,0 0,-7.46667 -27,0 0,22.4 54,0 0,-14.9333 z"
			id="movement-4-2-2.33333"
			style="fill:#ffffff;fill-opacity:1;stroke:#000000;stroke-width:2pt;stroke-miterlimit:4;stroke-opacity:1;stroke-dasharray:none" />
		<path
			d="m 922.5,1273.81 a 4.5,4.5 0 1 1 -9,0 4.5,4.5 0 1 1 9,0 z"
			id="movement-4-2-2.33333-middot"
			style="fill:#000000;fill-opacity:1;stroke:none" />
		<path
			d="m 945,1282.77 -54,-1.49333 0,4.48 54,0 0,-2.98667 z"
			id="movement-4-2-2.16667"
			style="fill:#ffffff;fill-opacity:1;stroke:#000000;stroke-width:2pt;stroke-miterlimit:4;stroke-opacity:1;stroke-dasharray:none" />
		<path
			d="m 922.48,1283.52 a 4.48,4.48 0 1 1 -8.96,0 4.48,4.48 0 1 1 8.96,0 z"
			id="movement-4-2-2.16667-middot"
			style="fill:#000000;fill-opacity:1;stroke:none" />
		<path
			d="m 945,1303.68 -54,-17.92 0,53.76 54,0 0,-35.84 z"
			id="movement-4-2-0.166667"
			style="fill:#000000;fill-opacity:1;stroke:#000000;stroke-width:2pt;stroke-miterlimit:4;stroke-opacity:1;stroke-dasharray:none" />
		<path
			d="m 945,1348.48 -54,-8.96 0,26.88 54,0 0,-17.92 z"
			id="movement-4-1-4.16667"
			style="fill:#ffffff;fill-opacity:1;stroke:#000000;stroke-width:2pt;stroke-miterlimit:4;stroke-opacity:1;stroke-dasharray:none" />
		<path
			d="m 922.5,1352.96 a 4.5,4.5 0 1 1 -9,0 4.5,4.5 0 1 1 9,0 z"
			id="movement-4-1-4.16667-middot"
			style="fill:#000000;fill-opacity:1;stroke:none" />
		<path
			d="m 945,1372.37 -27,0 0,-5.97333 -27,0 0,17.92 54,0 0,-11.9467 z"
			id="movement-4-1-3.5"
			style="fill:#ffffff;fill-opacity:1;stroke:#000000;stroke-width:2pt;stroke-miterlimit:4;stroke-opacity:1;stroke-dasharray:none" />
		<path
			d="m 922.5,1378.35 a 4.5,4.5 0 1 1 -9,0 4.5,4.5 0 1 1 9,0 z"
			id="movement-4-1-3.5-middot"
			style="fill:#000000;fill-opacity:1;stroke:none" />
		<path
			d="m 945,1411.2 -27,0 0,-26.88 -27,0 0,80.64 54,0 0,-53.76 z"
			id="movement-4-1-0.5"
			style="fill:#000000;fill-opacity:1;stroke:#000000;stroke-width:2pt;stroke-miterlimit:4;stroke-opacity:1;stroke-dasharray:none" />
		<rect
			width="54"
			height="134.4"
			x="891"
			y="1497.6"
			id="movement-4-0-0"
			style="fill:#000000;fill-opacity:1;stroke:#000000;stroke-width:2pt;stroke-miterlimit:4;stroke-opacity:1;stroke-dasharray:none" />
		<rect
			width="54"
			height="62.72"
			x="351"
			y="349.44"
			id="movement--2-8-4.66667"
			style="fill:#000000;fill-opacity:1;stroke:#000000;stroke-width:2pt;stroke-miterlimit:4;stroke-opacity:1;stroke-dasharray:none" />
		<path
			d="m 405,418.133 -54,-5.97333 0,17.92 54,0 0,-11.9467 z"
			id="movement--2-8-4"
			style="fill:#000000;fill-opacity:1;stroke:#000000;stroke-width:2pt;stroke-miterlimit:4;stroke-opacity:1;stroke-dasharray:none" />
		<rect
			width="54"
			height="35.84"
			x="351"
			y="465.92"
			id="movement--2-8-1.33333"
			style="fill:#000000;fill-opacity:1;stroke:#000000;stroke-width:2pt;stroke-miterlimit:4;stroke-opacity:1;stroke-dasharray:none" />
		<path
			d="m 351,801.92 27,0 0,8.96 27,0 0,-26.88 -54,0 0,17.92 z"
			id="movement--2-5-4.83333"
			style="fill:#000000;fill-opacity:1;stroke:#000000;stroke-width:2pt;stroke-miterlimit:4;stroke-opacity:1;stroke-dasharray:none" />
		<rect
			width="54"
			height="17.92"
			x="351"
			y="810.88"
			id="movement--2-5-4.16667"
			style="fill:#000000;fill-opacity:1;stroke:#000000;stroke-width:2pt;stroke-miterlimit:4;stroke-opacity:1;stroke-dasharray:none" />
		<path
			d="m 351,840.747 27,0 0,5.97333 27,0 0,-17.92 -54,0 0,11.9467 z"
			id="movement--2-5-3.5"
			style="fill:#000000;fill-opacity:1;stroke:#000000;stroke-width:2pt;stroke-miterlimit:4;stroke-opacity:1;stroke-dasharray:none" />
		<rect
			width="54"
			height="31.36"
			x="351"
			y="846.72"
			id="movement--2-5-2.33333"
			style="fill:#000000;fill-opacity:1;stroke:#000000;stroke-width:2pt;stroke-miterlimit:4;stroke-opacity:1;stroke-dasharray:none" />
		<path
			d="m 351,913.92 27,0 0,17.92 27,0 0,-53.76 -54,0 0,35.84 z"
			id="movement--2-5-0.333333"
			style="fill:#000000;fill-opacity:1;stroke:#000000;stroke-width:2pt;stroke-miterlimit:4;stroke-opacity:1;stroke-dasharray:none" />
		<rect
			width="54"
			height="76.16"
			x="351"
			y="931.84"
			id="movement--2-4-2.5"
			style="fill:#000000;fill-opacity:1;stroke:#000000;stroke-width:2pt;stroke-miterlimit:4;stroke-opacity:1;stroke-dasharray:none" />
		<path
			d="m 351,1025.92 27,0 0,8.96 27,0 0,-26.88 -54,0 0,17.92 z"
			id="movement--2-4-1.5"
			style="fill:#000000;fill-opacity:1;stroke:#000000;stroke-width:2pt;stroke-miterlimit:4;stroke-opacity:1;stroke-dasharray:none" />
		<rect
			width="54"
			height="80.64"
			x="351"
			y="1034.88"
			id="movement--2-3-3.5"
			style="fill:#000000;fill-opacity:1;stroke:#000000;stroke-width:2pt;stroke-miterlimit:4;stroke-opacity:1;stroke-dasharray:none" />
		<path
			d="m 351,1142.4 27,0 0,13.44 27,0 0,-40.32 -54,0 0,26.88 z"
			id="movement--2-3-2"
			style="fill:#000000;fill-opacity:1;stroke:#000000;stroke-width:2pt;stroke-miterlimit:4;stroke-opacity:1;stroke-dasharray:none" />
		<rect
			width="54"
			height="89.6"
			x="351"
			y="1155.84"
			id="movement--2-2-3.66667"
			style="fill:#000000;fill-opacity:1;stroke:#000000;stroke-width:2pt;stroke-miterlimit:4;stroke-opacity:1;stroke-dasharray:none" />
		<path
			d="m 351,1269.33 27,0 0,11.9467 27,0 0,-35.84 -54,0 0,23.8933 z"
			id="movement--2-2-2.33333"
			style="fill:#000000;fill-opacity:1;stroke:#000000;stroke-width:2pt;stroke-miterlimit:4;stroke-opacity:1;stroke-dasharray:none" />
		<rect
			width="54"
			height="4.48"
			x="351"
			y="1281.28"
			id="movement--2-2-2.16667"
			style="fill:#000000;fill-opacity:1;stroke:#000000;stroke-width:2pt;stroke-miterlimit:4;stroke-opacity:1;stroke-dasharray:none" />
		<path
			d="m 351,1342.51 27,0 0,28.3733 27,0 0,-85.12 -54,0 0,56.7467 z"
			id="movement--2-1-4"
			style="fill:#000000;fill-opacity:1;stroke:#000000;stroke-width:2pt;stroke-miterlimit:4;stroke-opacity:1;stroke-dasharray:none" />
		<rect
			width="54"
			height="31.36"
			x="351"
			y="1370.88"
			id="movement--2-1-2.83333"
			style="fill:#000000;fill-opacity:1;stroke:#000000;stroke-width:2pt;stroke-miterlimit:4;stroke-opacity:1;stroke-dasharray:none" />
		<path
			d="m 351,1438.08 27,0 0,17.92 27,0 0,-53.76 -54,0 0,35.84 z"
			id="movement--2-1-0.833333"
			style="fill:#000000;fill-opacity:1;stroke:#000000;stroke-width:2pt;stroke-miterlimit:4;stroke-opacity:1;stroke-dasharray:none" />
		<rect
			width="54"
			height="134.4"
			x="351"
			y="1497.6"
			id="movement--2-0-0"
			style="fill:#000000;fill-opacity:1;stroke:#000000;stroke-width:2pt;stroke-miterlimit:4;stroke-opacity:1;stroke-dasharray:none" />
		<rect
			width="54"
			height="8.96"
			x="675"
			y="161.28"
			id="movement-2-10-3.66667"
			style="fill:#000000;fill-opacity:1;stroke:#000000;stroke-width:2pt;stroke-miterlimit:4;stroke-opacity:1;stroke-dasharray:none" />
		<path
			d="m 675,171.733 54,-1.49333 0,4.48 -54,0 0,-2.98667 z"
			id="movement-2-10-3.5"
			style="fill:#000000;fill-opacity:1;stroke:#000000;stroke-width:2pt;stroke-miterlimit:4;stroke-opacity:1;stroke-dasharray:none" />
		<rect
			width="54"
			height="4.48"
			x="675"
			y="174.72"
			id="movement-2-10-3.33333"
			style="fill:#000000;fill-opacity:1;stroke:#000000;stroke-width:2pt;stroke-miterlimit:4;stroke-opacity:1;stroke-dasharray:none" />
		<path
			d="m 675,180.693 54,-1.49333 0,4.48 -54,0 0,-2.98667 z"
			id="movement-2-10-3.16667"
			style="fill:#000000;fill-opacity:1;stroke:#000000;stroke-width:2pt;stroke-miterlimit:4;stroke-opacity:1;stroke-dasharray:none" />
		<rect
			width="54"
			height="17.92"
			x="675"
			y="183.68"
			id="movement-2-10-2.5"
			style="fill:#000000;fill-opacity:1;stroke:#000000;stroke-width:2pt;stroke-miterlimit:4;stroke-opacity:1;stroke-dasharray:none" />
		<path
			d="m 675,203.093 54,-1.49333 0,4.48 -54,0 0,-2.98667 z"
			id="movement-2-10-2.33333"
			style="fill:#000000;fill-opacity:1;stroke:#000000;stroke-width:2pt;stroke-miterlimit:4;stroke-opacity:1;stroke-dasharray:none" />
		<rect
			width="54"
			height="4.48"
			x="675"
			y="206.08"
			id="movement-2-10-2.16667"
			style="fill:#000000;fill-opacity:1;stroke:#000000;stroke-width:2pt;stroke-miterlimit:4;stroke-opacity:1;stroke-dasharray:none" />
		<path
			d="m 675,213.547 54,-2.98667 0,8.96 -54,0 0,-5.97333 z"
			id="movement-2-10-1.83333"
			style="fill:#000000;fill-opacity:1;stroke:#000000;stroke-width:2pt;stroke-miterlimit:4;stroke-opacity:1;stroke-dasharray:none" />
		<rect
			width="54"
			height="22.4"
			x="675"
			y="219.52"
			id="movement-2-10-1"
			style="fill:#000000;fill-opacity:1;stroke:#000000;stroke-width:2pt;stroke-miterlimit:4;stroke-opacity:1;stroke-dasharray:none" />
		<path
			d="m 675,243.413 54,-1.49333 0,4.48 -54,0 0,-2.98667 z"
			id="movement-2-10-0.833333"
			style="fill:#000000;fill-opacity:1;stroke:#000000;stroke-width:2pt;stroke-miterlimit:4;stroke-opacity:1;stroke-dasharray:none" />
		<rect
			width="54"
			height="22.4"
			x="675"
			y="246.4"
			id="movement-2-10-0"
			style="fill:#000000;fill-opacity:1;stroke:#000000;stroke-width:2pt;stroke-miterlimit:4;stroke-opacity:1;stroke-dasharray:none" />
		<path
			d="m 675,270.293 54,-1.49333 0,4.48 -54,0 0,-2.98667 z"
			id="movement-2-9-4.83333"
			style="fill:#000000;fill-opacity:1;stroke:#000000;stroke-width:2pt;stroke-miterlimit:4;stroke-opacity:1;stroke-dasharray:none" />
		<rect
			width="54"
			height="8.96"
			x="675"
			y="273.28"
			id="movement-2-9-4.5"
			style="fill:#000000;fill-opacity:1;stroke:#000000;stroke-width:2pt;stroke-miterlimit:4;stroke-opacity:1;stroke-dasharray:none" />
		<path
			d="m 675,286.72 54,-4.48 0,13.44 -54,0 0,-8.96 z"
			id="movement-2-9-4"
			style="fill:#000000;fill-opacity:1;stroke:#000000;stroke-width:2pt;stroke-miterlimit:4;stroke-opacity:1;stroke-dasharray:none" />
		<rect
			width="54"
			height="4.48"
			x="675"
			y="367.36"
			id="movement-2-9-1.16667"
			style="fill:#000000;fill-opacity:1;stroke:#000000;stroke-width:2pt;stroke-miterlimit:4;stroke-opacity:1;stroke-dasharray:none" />
		<path
			d="m 675,373.333 54,-1.49333 0,4.48 -54,0 0,-2.98667 z"
			id="movement-2-9-1"
			style="fill:#000000;fill-opacity:1;stroke:#000000;stroke-width:2pt;stroke-miterlimit:4;stroke-opacity:1;stroke-dasharray:none" />
		<rect
			width="54"
			height="8.96"
			x="675"
			y="376.32"
			id="movement-2-9-0.666667"
			style="fill:#000000;fill-opacity:1;stroke:#000000;stroke-width:2pt;stroke-miterlimit:4;stroke-opacity:1;stroke-dasharray:none" />
		<path
			d="m 675,403.2 54,-17.92 0,53.76 -54,0 0,-35.84 z"
			id="movement-2-8-3.66667"
			style="fill:#000000;fill-opacity:1;stroke:#000000;stroke-width:2pt;stroke-miterlimit:4;stroke-opacity:1;stroke-dasharray:none" />
		<rect
			width="54"
			height="49.28"
			x="675"
			y="483.84"
			id="movement-2-8-0.166667"
			style="fill:#000000;fill-opacity:1;stroke:#000000;stroke-width:2pt;stroke-miterlimit:4;stroke-opacity:1;stroke-dasharray:none" />
		<path
			d="m 729,542.08 -27,0 0,4.48 -27,0 0,-13.44 54,0 0,8.96 z"
			id="movement-2-7-4.66667"
			style="fill:#000000;fill-opacity:1;stroke:#000000;stroke-width:2pt;stroke-miterlimit:4;stroke-opacity:1;stroke-dasharray:none" />
		<rect
			width="54"
			height="4.48"
			x="675"
			y="546.56"
			id="movement-2-7-4.5"
			style="fill:#000000;fill-opacity:1;stroke:#000000;stroke-width:2pt;stroke-miterlimit:4;stroke-opacity:1;stroke-dasharray:none" />
		<path
			d="m 729,554.027 -27,0 0,1.49333 -27,0 0,-4.48 54,0 0,2.98667 z"
			id="movement-2-7-4.33333"
			style="fill:#000000;fill-opacity:1;stroke:#000000;stroke-width:2pt;stroke-miterlimit:4;stroke-opacity:1;stroke-dasharray:none" />
		<rect
			width="54"
			height="44.8"
			x="675"
			y="560"
			id="movement-2-7-2.5"
			style="fill:#000000;fill-opacity:1;stroke:#000000;stroke-width:2pt;stroke-miterlimit:4;stroke-opacity:1;stroke-dasharray:none" />
		<path
			d="m 729,831.787 -27,0 0,14.9333 -27,0 0,-44.8 54,0 0,29.8667 z"
			id="movement-2-5-3.5"
			style="fill:#000000;fill-opacity:1;stroke:#000000;stroke-width:2pt;stroke-miterlimit:4;stroke-opacity:1;stroke-dasharray:none" />
		<rect
			width="54"
			height="31.36"
			x="675"
			y="846.72"
			id="movement-2-5-2.33333"
			style="fill:#000000;fill-opacity:1;stroke:#000000;stroke-width:2pt;stroke-miterlimit:4;stroke-opacity:1;stroke-dasharray:none" />
		<path
			d="m 729,913.92 -27,0 0,17.92 -27,0 0,-53.76 54,0 0,35.84 z"
			id="movement-2-5-0.333333"
			style="fill:#000000;fill-opacity:1;stroke:#000000;stroke-width:2pt;stroke-miterlimit:4;stroke-opacity:1;stroke-dasharray:none" />
		<rect
			width="54"
			height="40.32"
			x="675"
			y="967.68"
			id="movement-2-4-2.5"
			style="fill:#000000;fill-opacity:1;stroke:#000000;stroke-width:2pt;stroke-miterlimit:4;stroke-opacity:1;stroke-dasharray:none" />
		<path
			d="m 729,1028.91 -27,0 0,10.4533 -27,0 0,-31.36 54,0 0,20.9067 z"
			id="movement-2-4-1.33333"
			style="fill:#000000;fill-opacity:1;stroke:#000000;stroke-width:2pt;stroke-miterlimit:4;stroke-opacity:1;stroke-dasharray:none" />
		<rect
			width="54"
			height="89.6"
			x="675"
			y="1155.84"
			id="movement-2-2-3.66667"
			style="fill:#000000;fill-opacity:1;stroke:#000000;stroke-width:2pt;stroke-miterlimit:4;stroke-opacity:1;stroke-dasharray:none" />
		<path
			d="m 729,1269.33 -27,0 0,11.9467 -27,0 0,-35.84 54,0 0,23.8933 z"
			id="movement-2-2-2.33333"
			style="fill:#000000;fill-opacity:1;stroke:#000000;stroke-width:2pt;stroke-miterlimit:4;stroke-opacity:1;stroke-dasharray:none" />
		<rect
			width="54"
			height="4.48"
			x="675"
			y="1281.28"
			id="movement-2-2-2.16667"
			style="fill:#000000;fill-opacity:1;stroke:#000000;stroke-width:2pt;stroke-miterlimit:4;stroke-opacity:1;stroke-dasharray:none" />
		<path
			d="m 729,1355.95 -27,0 0,14.9333 -27,0 0,-44.8 54,0 0,29.8667 z"
			id="movement-2-1-4"
			style="fill:#000000;fill-opacity:1;stroke:#000000;stroke-width:2pt;stroke-miterlimit:4;stroke-opacity:1;stroke-dasharray:none" />
		<rect
			width="54"
			height="134.4"
			x="675"
			y="1497.6"
			id="movement-2-0-0"
			style="fill:#000000;fill-opacity:1;stroke:#000000;stroke-width:2pt;stroke-miterlimit:4;stroke-opacity:1;stroke-dasharray:none" />
	</g>
</svg>
